<svg width="260" height="260" viewBox="0 0 260 260" fill="none" xmlns="http://www.w3.org/2000/svg">
<path d="M130 162.5C147.949 162.5 162.5 147.949 162.5 130C162.5 112.051 147.949 97.5 130 97.5C112.051 97.5 97.4999 112.051 97.4999 130C97.4999 147.949 112.051 162.5 130 162.5Z" stroke="#79C579" stroke-width="4" stroke-linecap="round" stroke-linejoin="round"/>
<path d="M210.167 162.5C208.725 165.768 208.294 169.392 208.932 172.906C209.569 176.421 211.244 179.664 213.742 182.217L214.392 182.867C216.406 184.879 218.004 187.269 219.095 189.899C220.185 192.529 220.746 195.349 220.746 198.196C220.746 201.043 220.185 203.863 219.095 206.493C218.004 209.123 216.406 211.513 214.392 213.525C212.379 215.54 209.99 217.138 207.359 218.228C204.729 219.318 201.91 219.88 199.062 219.88C196.215 219.88 193.396 219.318 190.765 218.228C188.135 217.138 185.746 215.54 183.733 213.525L183.083 212.875C180.53 210.378 177.287 208.702 173.773 208.065C170.259 207.428 166.634 207.858 163.367 209.3C160.162 210.673 157.43 212.954 155.505 215.86C153.58 218.766 152.547 222.172 152.533 225.658V227.5C152.533 233.246 150.251 238.757 146.187 242.821C142.124 246.884 136.613 249.167 130.867 249.167C125.12 249.167 119.609 246.884 115.546 242.821C111.483 238.757 109.2 233.246 109.2 227.5V226.525C109.116 222.939 107.955 219.462 105.869 216.544C103.782 213.627 100.866 211.405 97.4999 210.167C94.2324 208.725 90.6078 208.294 87.0935 208.932C83.5793 209.569 80.3364 211.244 77.7833 213.742L77.1333 214.392C75.121 216.406 72.7314 218.004 70.1011 219.095C67.4708 220.185 64.6514 220.746 61.8041 220.746C58.9568 220.746 56.1373 220.185 53.507 219.095C50.8768 218.004 48.4872 216.406 46.4749 214.392C44.4604 212.379 42.8623 209.99 41.772 207.36C40.6816 204.729 40.1204 201.91 40.1204 199.063C40.1204 196.215 40.6816 193.396 41.772 190.766C42.8623 188.135 44.4604 185.746 46.4749 183.733L47.1249 183.083C49.6224 180.53 51.2978 177.287 51.935 173.773C52.5722 170.259 52.142 166.634 50.6999 163.367C49.3267 160.163 47.0464 157.43 44.14 155.505C41.2335 153.58 37.8276 152.547 34.3416 152.533H32.4999C26.7536 152.533 21.2426 150.251 17.1793 146.187C13.116 142.124 10.8333 136.613 10.8333 130.867C10.8333 125.12 13.116 119.609 17.1793 115.546C21.2426 111.483 26.7536 109.2 32.4999 109.2H33.4749C37.0607 109.116 40.5383 107.955 43.4557 105.869C46.373 103.782 48.5952 100.866 49.8333 97.5C51.2753 94.2325 51.7055 90.608 51.0683 87.0937C50.4311 83.5794 48.7557 80.3366 46.2583 77.7834L45.6083 77.1334C43.5938 75.1211 41.9957 72.7315 40.9053 70.1012C39.8149 67.471 39.2537 64.6515 39.2537 61.8042C39.2537 58.9569 39.8149 56.1375 40.9053 53.5072C41.9957 50.8769 43.5938 48.4873 45.6083 46.475C47.6205 44.4606 50.0101 42.8624 52.6404 41.7721C55.2707 40.6817 58.0901 40.1205 60.9374 40.1205C63.7848 40.1205 66.6042 40.6817 69.2345 41.7721C71.8648 42.8624 74.2543 44.4606 76.2666 46.475L76.9166 47.125C79.4698 49.6225 82.7126 51.2979 86.2269 51.9351C89.7412 52.5723 93.3658 52.1421 96.6333 50.7H97.4999C100.704 49.3268 103.437 47.0466 105.362 44.1401C107.286 41.2336 108.319 37.8277 108.333 34.3417V32.5C108.333 26.7537 110.616 21.2427 114.679 17.1794C118.743 13.1161 124.254 10.8334 130 10.8334C135.746 10.8334 141.257 13.1161 145.321 17.1794C149.384 21.2427 151.667 26.7537 151.667 32.5V33.475C151.68 36.9611 152.713 40.3669 154.638 43.2734C156.563 46.1799 159.296 48.4601 162.5 49.8334C165.767 51.2755 169.392 51.7056 172.906 51.0684C176.421 50.4312 179.663 48.7559 182.217 46.2584L182.867 45.6084C184.879 43.5939 187.268 41.9958 189.899 40.9054C192.529 39.8151 195.348 39.2538 198.196 39.2538C201.043 39.2538 203.863 39.8151 206.493 40.9054C209.123 41.9958 211.513 43.5939 213.525 45.6084C215.539 47.6206 217.138 50.0102 218.228 52.6405C219.318 55.2708 219.879 58.0902 219.879 60.9375C219.879 63.7849 219.318 66.6043 218.228 69.2346C217.138 71.8649 215.539 74.2545 213.525 76.2667L212.875 76.9167C210.377 79.4699 208.702 82.7127 208.065 86.227C207.428 89.7413 207.858 93.3659 209.3 96.6334V97.5C210.673 100.704 212.953 103.437 215.86 105.362C218.766 107.287 222.172 108.319 225.658 108.333H227.5C233.246 108.333 238.757 110.616 242.821 114.679C246.884 118.743 249.167 124.254 249.167 130C249.167 135.746 246.884 141.257 242.821 145.321C238.757 149.384 233.246 151.667 227.5 151.667H226.525C223.039 151.681 219.633 152.714 216.727 154.638C213.82 156.563 211.54 159.296 210.167 162.5Z" stroke="#79C579" stroke-width="4" stroke-linecap="round" stroke-linejoin="round"/>
</svg>
