<svg width="248" height="248" viewBox="0 0 248 248" fill="none" xmlns="http://www.w3.org/2000/svg">
<path d="M72.3334 113.667L113.667 20.6666C121.888 20.6666 129.773 23.9327 135.587 29.7463C141.401 35.5599 144.667 43.4449 144.667 51.6666V93H203.153C206.149 92.966 209.116 93.5838 211.85 94.8105C214.583 96.0372 217.017 97.8435 218.983 100.104C220.948 102.365 222.399 105.026 223.235 107.903C224.07 110.78 224.27 113.805 223.82 116.767L209.56 209.767C208.813 214.695 206.31 219.187 202.512 222.415C198.714 225.643 193.877 227.39 188.893 227.333H72.3334M72.3334 113.667V227.333M72.3334 113.667H41.3334C35.8523 113.667 30.5956 115.844 26.7199 119.72C22.8441 123.596 20.6667 128.852 20.6667 134.333V206.667C20.6667 212.148 22.8441 217.404 26.7199 221.28C30.5956 225.156 35.8523 227.333 41.3334 227.333H72.3334" stroke="#C305BB" stroke-width="4" stroke-linecap="round" stroke-linejoin="round"/>
</svg>
